<svg width="1440" height="1024" viewBox="0 0 1440 1024" fill="none" xmlns="http://www.w3.org/2000/svg">
<rect width="1440" height="1024" fill="#F5F5F5"/>
<g clip-path="url(#clip0_0_1)">
<rect width="1440" height="1024" fill="#171D2D"/>
<path d="M41.5 603L155.382 1037.25H-72.3823L41.5 603Z" fill="#263B71"/>
<path d="M1398.5 675L1512.38 1109.25H1284.62L1398.5 675Z" fill="#263B71"/>
<path d="M95 684L177.272 1040.25H12.7276L95 684Z" fill="#18274E"/>
<path d="M1339 755L1421.27 1111.25H1256.73L1339 755Z" fill="#18274E"/>
<rect x="-114" y="311" width="256" height="29" rx="14.5" fill="#D9D9D9" fill-opacity="0.23"/>
<rect x="1242" y="223" width="294" height="24" rx="12" fill="#D9D9D9" fill-opacity="0.23"/>
<rect x="1262" y="303" width="294" height="24" rx="12" fill="#D9D9D9" fill-opacity="0.23"/>
<rect x="-70" y="359" width="256" height="30" rx="15" fill="#D9D9D9" fill-opacity="0.23"/>
<rect x="1330" y="263" width="192" height="24" rx="12" fill="#D9D9D9" fill-opacity="0.23"/>
<rect x="-6" y="359" width="19" height="128" transform="rotate(-90 -6 359)" fill="#D9D9D9" fill-opacity="0.23"/>
<rect x="1363" y="303" width="16" height="67" transform="rotate(-90 1363 303)" fill="#D9D9D9" fill-opacity="0.23"/>
<rect x="-211" y="340" width="256" height="20" rx="10" fill="#171D2D"/>
<rect x="1103" y="311" width="61" height="16" rx="8" fill="#171D2D"/>
<rect x="96" y="340" width="116" height="20" rx="10" fill="#171D2D"/>
<rect x="1409" y="287" width="133" height="16" rx="8" fill="#171D2D"/>
<rect x="1242" y="287" width="133" height="16" rx="8" fill="#171D2D"/>
<circle cx="198.5" cy="62.5" r="4.5" fill="#D9D9D9" fill-opacity="0.23"/>
<circle cx="343.5" cy="131.5" r="4.5" fill="#D9D9D9" fill-opacity="0.23"/>
<circle cx="534.5" cy="57.5" r="4.5" fill="#D9D9D9" fill-opacity="0.23"/>
<circle cx="572.5" cy="287.5" r="4.5" fill="#D9D9D9" fill-opacity="0.23"/>
<circle cx="955.5" cy="278.5" r="4.5" fill="#D9D9D9" fill-opacity="0.23"/>
<circle cx="1300.5" cy="39.5" r="4.5" fill="#D9D9D9" fill-opacity="0.23"/>
<circle cx="1066.5" cy="126.5" r="4.5" fill="#D9D9D9" fill-opacity="0.23"/>
<circle cx="1201.5" cy="425.5" r="4.5" fill="#D9D9D9" fill-opacity="0.23"/>
<circle cx="268.5" cy="448.5" r="4.5" fill="#D9D9D9" fill-opacity="0.23"/>
<circle cx="106.5" cy="214.5" r="4.5" fill="#D9D9D9" fill-opacity="0.23"/>
</g>
<defs>
<clipPath id="clip0_0_1">
<rect width="1440" height="1024" fill="white"/>
</clipPath>
</defs>
</svg>
